<?xml version="1.0" standalone="no"?>
<!DOCTYPE svg PUBLIC "-//W3C//DTD SVG 20010904//EN"
 "http://www.w3.org/TR/2001/REC-SVG-20010904/DTD/svg10.dtd">
<svg version="1.0" xmlns="http://www.w3.org/2000/svg"
 width="800.000000pt" height="800.000000pt" viewBox="0 0 800.000000 800.000000"
 preserveAspectRatio="xMidYMid meet">

<g transform="translate(0.000000,800.000000) scale(0.100000,-0.100000)"
fill="#000000" stroke="none">
<path d="M3948 6910 c-75 -22 -148 -124 -148 -204 0 -82 67 -179 138 -201 l22
-6 0 -500 0 -499 -205 0 -205 0 0 247 0 246 -111 113 -112 113 41 46 c116 132
22 335 -155 335 -90 0 -166 -53 -193 -136 -17 -51 -7 -145 20 -189 26 -42 90
-81 146 -91 36 -5 57 -21 158 -123 l116 -117 -2 -389 -3 -390 -50 -6 c-53 -7
-139 -38 -180 -65 l-25 -16 0 184 0 185 -301 301 -301 301 11 32 c18 52 13
120 -11 169 -32 62 -111 110 -183 110 -40 0 -63 -7 -105 -32 -134 -81 -140
-262 -13 -352 56 -39 140 -47 195 -18 l36 19 286 -282 286 -283 0 -219 0 -219
-33 -32 -33 -32 -195 0 -194 0 -297 298 -297 297 14 60 c13 52 13 67 0 111 -8
28 -24 63 -37 79 -26 34 -111 75 -155 75 -43 0 -112 -27 -144 -57 -163 -150
-4 -429 205 -358 l49 17 306 -306 306 -306 187 0 c168 0 218 -6 189 -24 -13
-9 -41 -137 -41 -190 l0 -46 -377 0 -378 0 -145 144 -145 144 0 80 c-1 70 -4
85 -28 121 -15 22 -45 53 -67 67 -131 87 -310 -13 -310 -173 0 -92 30 -146
108 -195 48 -30 135 -29 189 1 l41 24 152 -149 c177 -174 144 -162 433 -163
l187 -1 0 -127 0 -126 -137 6 c-75 4 -288 7 -474 7 l-338 0 -7 23 c-12 40 -44
76 -91 104 -93 54 -213 26 -278 -65 -27 -39 -30 -52 -30 -115 0 -88 25 -135
94 -178 36 -23 56 -29 103 -29 34 0 72 7 91 16 47 24 95 73 108 111 l11 33
474 0 474 0 0 -130 0 -130 -226 0 -227 0 -146 -142 c-80 -79 -150 -149 -156
-155 -8 -10 -21 -8 -59 12 -81 41 -162 33 -227 -23 -135 -116 -85 -325 88
-363 91 -21 171 15 219 96 22 38 25 54 23 117 l-2 72 153 148 153 148 372 0
372 0 7 -63 c6 -60 24 -141 41 -179 7 -17 -6 -18 -181 -18 l-189 -1 -235 -230
c-129 -127 -267 -262 -306 -301 l-71 -70 -47 16 c-65 22 -94 20 -157 -11 -110
-57 -151 -177 -95 -283 35 -68 92 -103 171 -108 56 -4 70 -1 109 22 92 54 130
143 102 237 l-15 53 290 288 289 288 204 0 204 0 26 -31 26 -31 0 -216 0 -217
-281 -281 -282 -282 -31 19 c-37 23 -122 25 -169 5 -70 -29 -126 -115 -127
-192 0 -58 44 -139 98 -178 39 -27 52 -31 110 -31 82 0 126 24 171 92 39 58
47 103 31 166 l-12 49 296 298 297 297 -4 191 -5 191 36 -24 c42 -28 128 -59
190 -70 l42 -7 0 -384 0 -384 -112 -120 c-104 -111 -116 -120 -149 -120 -54 0
-102 -24 -143 -71 -114 -133 -18 -339 159 -339 145 0 244 153 186 286 -12 27
-31 58 -42 70 l-19 20 105 112 105 112 0 240 0 240 205 0 205 0 0 -492 0 -493
-47 -25 c-154 -81 -149 -290 9 -371 105 -54 245 7 284 123 32 99 -14 208 -107
250 l-49 23 0 492 0 493 210 0 210 0 0 -240 0 -240 87 -98 c48 -53 93 -105
102 -115 13 -16 12 -20 -12 -45 -32 -33 -57 -91 -57 -130 0 -16 7 -49 15 -73
66 -185 327 -185 390 0 19 57 19 92 -1 139 -32 77 -108 132 -183 132 -34 0
-44 8 -144 119 l-107 120 0 384 0 384 85 21 c51 12 104 33 130 51 l45 30 0
-191 0 -192 296 -297 296 -297 -12 -50 c-17 -73 6 -148 62 -202 131 -128 343
-32 343 155 0 149 -141 244 -281 190 l-46 -18 -279 279 -279 279 0 219 0 220
27 28 27 28 200 0 201 0 294 -294 c161 -161 289 -296 283 -300 -17 -10 -24
-100 -12 -145 13 -51 60 -106 113 -133 61 -31 153 -23 204 18 133 107 111 295
-42 365 -51 24 -99 23 -150 0 l-40 -19 -305 304 -306 304 -187 0 c-103 0 -187
1 -187 3 0 1 9 27 21 57 11 30 23 88 26 128 l6 72 370 0 370 0 153 -145 152
-146 -5 -53 c-12 -113 52 -210 154 -236 166 -41 314 132 244 285 -19 43 -78
100 -118 116 -47 17 -127 11 -179 -16 l-49 -25 -155 155 -155 155 -223 0 -222
0 0 130 0 130 469 0 468 0 25 -47 c34 -68 92 -106 168 -111 70 -5 111 8 158
52 91 84 89 223 -4 305 -96 84 -232 70 -308 -32 -12 -18 -26 -40 -29 -49 -6
-17 -31 -18 -324 -18 -175 0 -387 -3 -470 -7 l-153 -6 0 127 0 126 138 0 c77
0 180 3 231 7 l92 6 155 150 155 150 41 -23 c50 -28 137 -32 184 -7 46 24 102
91 114 139 25 90 -16 187 -98 235 -38 22 -59 28 -109 28 -83 0 -136 -35 -177
-119 -28 -54 -29 -61 -19 -110 l11 -51 -151 -153 -152 -152 -379 2 -378 3 -3
70 c-2 41 -12 92 -24 123 -12 29 -21 55 -21 57 0 3 85 5 190 5 l189 0 88 88
c48 49 188 187 310 306 206 203 223 217 243 206 37 -20 130 -16 176 8 129 66
154 247 48 343 -35 32 -103 59 -147 59 -51 0 -134 -46 -165 -92 -30 -47 -41
-136 -22 -192 l12 -36 -293 -300 -293 -300 -197 0 -197 0 -31 39 -31 39 0 213
0 214 281 281 281 281 36 -19 c71 -36 160 -20 225 41 46 42 61 79 61 151 0 53
-5 73 -26 105 -32 51 -54 70 -101 90 -153 64 -316 -79 -273 -241 l13 -49 -299
-300 -298 -301 0 -188 0 -188 -34 21 c-46 29 -112 52 -171 59 l-50 7 -3 395
-2 394 112 113 c65 65 121 113 132 113 101 0 206 107 206 210 0 83 -78 189
-150 203 -122 25 -212 -24 -256 -138 -24 -64 -7 -141 44 -197 l35 -39 -106
-107 -107 -107 0 -253 0 -252 -205 0 -205 0 0 498 0 497 50 28 c71 39 110 102
110 176 0 71 -26 128 -76 169 -57 48 -128 63 -196 42z m120 -100 c45 -28 66
-79 52 -130 -23 -85 -118 -118 -180 -62 -60 53 -47 161 23 196 43 21 66 20
105 -4z m-789 -326 c82 -69 38 -214 -64 -214 -26 0 -43 9 -69 34 -43 44 -52
81 -30 135 28 72 106 93 163 45z m1597 -8 c29 -29 34 -41 34 -82 0 -42 -4 -51
-40 -86 -31 -29 -49 -38 -75 -38 -105 0 -145 164 -53 220 51 31 94 26 134 -14z
m-2411 -222 c69 -33 82 -128 26 -185 -37 -37 -70 -44 -114 -26 -91 38 -94 169
-6 214 32 17 54 16 94 -3z m3185 1 c84 -44 78 -171 -11 -210 -50 -23 -100 -7
-129 39 -63 103 36 225 140 171z m-3727 -536 c52 -24 74 -113 41 -165 -48 -73
-163 -68 -195 8 -19 45 -6 118 26 145 29 25 87 31 128 12z m4289 -9 c55 -43
61 -125 12 -174 -60 -59 -156 -38 -183 40 -18 50 -9 88 29 125 36 36 103 40
142 9z m-2252 -425 l0 -125 -205 0 -205 0 0 125 0 125 205 0 205 0 0 -125z
m510 0 l0 -125 -205 0 -205 0 0 125 0 125 205 0 205 0 0 -125z m-2712 -266
c56 -55 50 -127 -14 -178 -91 -72 -214 43 -159 149 21 41 53 60 100 60 33 0
48 -7 73 -31z m4654 2 c30 -27 33 -35 33 -86 0 -52 -3 -59 -34 -87 -30 -27
-39 -30 -80 -25 -82 9 -126 92 -90 170 28 61 118 76 171 28z m-1738 -28 c73
-35 159 -115 216 -201 60 -91 61 -98 58 -648 l-3 -499 -28 -57 c-44 -87 -164
-210 -245 -250 l-67 -33 -605 0 -605 0 -57 28 c-66 32 -186 156 -228 235 l-25
47 0 550 0 550 29 50 c38 63 157 182 220 219 29 17 74 32 105 36 31 5 306 7
611 6 l555 -1 69 -32z m-1746 -825 l-3 -303 -117 -3 -118 -3 0 300 0 300 73 4
c39 1 93 4 120 5 l47 2 -2 -302z m2402 -9 l0 -299 -120 0 -120 0 0 299 0 300
23 3 c12 2 66 2 120 0 l97 -3 0 -300z m-3846 111 c33 -12 66 -66 66 -105 0
-35 -29 -83 -62 -101 -43 -24 -87 -17 -124 20 -28 28 -34 41 -34 78 1 92 69
141 154 108z m5140 0 c32 -12 66 -65 66 -103 0 -36 -23 -81 -52 -101 -66 -46
-168 10 -168 93 0 51 15 83 48 104 31 19 69 21 106 7z m-4894 -775 c34 -18 60
-62 60 -102 0 -65 -78 -133 -135 -119 -46 12 -85 61 -85 108 0 97 81 154 160
113z m4680 -14 c53 -52 52 -131 -1 -175 -43 -36 -76 -42 -113 -22 -48 26 -69
62 -68 115 0 39 5 50 36 78 48 45 104 46 146 4z m-2450 -441 l0 -120 -205 0
-205 0 0 120 0 120 205 0 205 0 0 -120z m510 0 l0 -120 -207 2 -208 3 0 117 0
118 208 0 207 0 0 -120z m-2522 -221 c54 -39 53 -129 -4 -178 -47 -42 -91 -42
-139 0 -32 28 -35 36 -35 84 0 38 6 60 21 79 35 44 106 51 157 15z m4250 8
c69 -33 67 -155 -2 -201 -80 -52 -191 34 -165 128 23 83 89 111 167 73z
m-3700 -560 c18 -18 26 -39 30 -76 4 -47 2 -53 -30 -85 -19 -19 -46 -38 -61
-41 -35 -9 -94 21 -112 56 -30 57 -10 143 39 168 35 18 105 6 134 -22z m3162
16 c80 -47 62 -187 -28 -214 -49 -14 -86 1 -119 50 -70 104 40 228 147 164z
m-2374 -257 c29 -29 34 -41 34 -81 0 -40 -5 -52 -34 -81 -24 -24 -43 -34 -65
-34 -94 0 -152 98 -102 174 44 66 114 75 167 22z m1590 0 c29 -29 34 -41 34
-80 0 -36 -6 -52 -29 -78 -26 -29 -35 -33 -80 -33 -42 0 -55 5 -78 28 -24 23
-28 36 -28 81 0 77 36 114 114 115 25 1 41 -7 67 -33z m-783 -326 c33 -37 36
-90 7 -138 -36 -58 -119 -68 -168 -18 -36 36 -42 111 -12 149 29 37 56 48 105
42 29 -3 48 -12 68 -35z"/>
<path d="M3616 4663 c-7 -16 -46 -111 -86 -213 -280 -711 -273 -694 -354 -758
-16 -13 -16 -15 0 -33 15 -16 31 -19 118 -19 124 0 148 6 144 33 -2 14 -15 24
-42 31 -63 18 -65 31 -22 138 21 51 47 114 59 141 l21 47 165 -2 166 -3 52
-130 c29 -71 51 -139 50 -150 -1 -12 -17 -27 -39 -38 -40 -18 -51 -50 -22 -61
35 -13 501 -6 580 9 329 63 492 357 389 702 -38 129 -149 234 -295 283 -70 23
-88 25 -285 25 -207 0 -210 0 -213 -21 -2 -16 4 -24 27 -32 l31 -11 0 -374 c0
-373 0 -374 23 -408 21 -32 76 -67 104 -69 10 0 13 94 15 423 l3 422 95 -2
c126 -3 195 -29 266 -100 63 -63 89 -127 105 -256 26 -218 -53 -406 -203 -484
-48 -25 -65 -28 -182 -31 -76 -2 -144 0 -166 7 -69 21 -85 47 -230 406 -15 39
-39 97 -53 130 -13 33 -55 134 -92 225 -37 91 -71 173 -76 183 -14 25 -37 21
-53 -10z m70 -386 l61 -152 -125 -3 c-68 -1 -127 -1 -129 1 -2 3 24 75 58 161
34 86 65 154 68 150 3 -3 33 -74 67 -157z"/>
<path d="M3636 6264 c-13 -12 -16 -38 -16 -118 0 -109 6 -126 48 -126 41 0 51
26 52 132 0 89 -2 98 -22 112 -28 20 -43 20 -62 0z"/>
<path d="M4317 6262 c-14 -15 -17 -39 -17 -118 0 -54 4 -104 8 -110 13 -19 39
-23 61 -8 19 14 21 25 21 123 0 109 -7 131 -40 131 -9 0 -24 -8 -33 -18z"/>
<path d="M2453 5588 c-36 -45 -23 -66 156 -241 139 -136 154 -148 184 -145 27
3 32 7 35 33 3 27 -14 47 -157 189 -190 190 -195 193 -218 164z"/>
<path d="M5359 5434 c-92 -92 -170 -175 -172 -186 -6 -20 24 -58 45 -58 19 0
358 342 358 362 0 17 -35 48 -54 48 -5 0 -85 -75 -177 -166z"/>
<path d="M1878 4459 c-21 -12 -24 -59 -6 -77 7 -7 30 -12 53 -12 23 0 46 5 53
12 17 17 15 54 -4 72 -17 18 -70 21 -96 5z"/>
<path d="M6042 4454 c-50 -35 -15 -87 57 -82 39 3 47 7 55 30 19 55 -57 91
-112 52z"/>
<path d="M1866 3928 c-20 -29 -20 -34 4 -58 38 -38 120 -16 120 32 0 47 -96
67 -124 26z"/>
<path d="M6040 3930 c-25 -25 -25 -42 -2 -63 39 -35 122 -11 122 35 0 45 -84
64 -120 28z"/>
<path d="M2603 2964 c-90 -89 -163 -170 -163 -179 0 -9 5 -25 10 -36 23 -42
52 -24 223 148 92 91 167 172 167 180 0 31 -21 53 -48 52 -21 -1 -64 -38 -189
-165z"/>
<path d="M5196 3108 c-9 -12 -16 -27 -16 -32 0 -5 75 -85 167 -178 166 -166
192 -185 221 -156 33 33 15 60 -151 226 -170 169 -192 182 -221 140z"/>
<path d="M3632 2308 c-13 -13 -17 -202 -6 -232 7 -19 64 -22 82 -4 19 19 16
198 -4 226 -17 24 -53 29 -72 10z"/>
<path d="M4312 2308 c-8 -8 -12 -49 -12 -119 0 -100 2 -109 22 -123 28 -20 33
-20 52 0 13 12 16 39 16 123 0 112 -6 131 -45 131 -12 0 -26 -5 -33 -12z"/>
</g>
</svg>
